<?xml version="1.0" encoding="UTF-8" standalone="no"?>
<!-- Created with Inkscape (http://www.inkscape.org/) -->

<svg
   xmlns:dc="http://purl.org/dc/elements/1.1/"
   xmlns:cc="http://creativecommons.org/ns#"
   xmlns:rdf="http://www.w3.org/1999/02/22-rdf-syntax-ns#"
   xmlns:svg="http://www.w3.org/2000/svg"
   xmlns="http://www.w3.org/2000/svg"
   xmlns:sodipodi="http://sodipodi.sourceforge.net/DTD/sodipodi-0.dtd"
   xmlns:inkscape="http://www.inkscape.org/namespaces/inkscape"
   width="671.44189"
   height="786.63806"
   viewBox="0 0 671.4419 786.63807"
   id="svg4252"
   version="1.1"
   inkscape:version="0.48.4 r9939"
   sodipodi:docname="myers_stalin.svg">
  <defs
     id="defs4254" />
  <sodipodi:namedview
     id="base"
     pagecolor="#ffffff"
     bordercolor="#666666"
     borderopacity="1.0"
     inkscape:pageopacity="0.0"
     inkscape:pageshadow="2"
     inkscape:zoom="0.35"
     inkscape:cx="1185.5465"
     inkscape:cy="52.224387"
     inkscape:document-units="px"
     inkscape:current-layer="layer1"
     showgrid="false"
     inkscape:window-width="1301"
     inkscape:window-height="744"
     inkscape:window-x="65"
     inkscape:window-y="24"
     inkscape:window-maximized="1"
     fit-margin-top="0"
     fit-margin-left="0"
     fit-margin-right="0"
     fit-margin-bottom="0" />
  <metadata
     id="metadata4257">
    <rdf:RDF>
      <cc:Work
         rdf:about="">
        <dc:format>image/svg+xml</dc:format>
        <dc:type
           rdf:resource="http://purl.org/dc/dcmitype/StillImage" />
        <dc:title />
      </cc:Work>
    </rdf:RDF>
  </metadata>
  <g
     inkscape:label="Layer 1"
     inkscape:groupmode="layer"
     id="layer1"
     transform="translate(-40.550349,-42.702279)">
    <path
       inkscape:export-ydpi="150"
       inkscape:export-xdpi="150"
       inkscape:export-filename="/media/dmyers/h-drive/Digital Design 1/path3912.png"
       sodipodi:nodetypes="ccccccccccc"
       inkscape:connector-curvature="0"
       id="path4962"
       d="M 270.59555,498.1973 40.550344,592.63654 376.26364,829.33956 376.25869,498.1973 z M 376.26364,829.33956 711.99227,592.65197 481.9257,498.1973 l -105.66483,0 -5e-5,331.14306 z"
       style="fill:#000000;fill-opacity:1;stroke:none;display:inline" />
    <path
       inkscape:export-ydpi="150"
       inkscape:export-xdpi="150"
       inkscape:export-filename="/media/dmyers/h-drive/Digital Design 1/path3912.png"
       sodipodi:nodetypes="ccccccc"
       inkscape:connector-curvature="0"
       id="path4964"
       d="m 270.59555,393.96756 0,104.22974 105.66552,94.45551 105.66463,-94.45551 4e-4,-104.22974 -105.66483,0 z"
       style="fill:#cccccc;fill-opacity:1;stroke:none;display:inline" />
    <path
       inkscape:export-ydpi="150"
       inkscape:export-xdpi="150"
       inkscape:export-filename="/media/dmyers/h-drive/Digital Design 1/path3912.png"
       sodipodi:nodetypes="cccc"
       inkscape:connector-curvature="0"
       id="path4966"
       d="m 258.227,361.80935 c -32.79628,27.39273 -42.05117,-53.16896 -44.52676,-74.21128 6.46583,-20.06402 18.62381,-16.59201 32.15822,-7.42112 z"
       style="fill:#dcdcdc;fill-opacity:1;stroke:none;display:inline" />
    <path
       inkscape:export-ydpi="150"
       inkscape:export-xdpi="150"
       inkscape:export-filename="/media/dmyers/h-drive/Digital Design 1/path3912.png"
       style="fill:#dcdcdc;fill-opacity:1;stroke:none;display:inline"
       d="m 494.29632,361.80935 c 32.79629,27.39273 42.05118,-53.16896 44.52677,-74.21128 -6.46583,-20.06402 -18.62382,-16.59201 -32.15822,-7.42112 z"
       id="path4968"
       inkscape:connector-curvature="0"
       sodipodi:nodetypes="cccc" />
    <path
       inkscape:export-ydpi="150"
       inkscape:export-xdpi="150"
       inkscape:export-filename="/media/dmyers/h-drive/Digital Design 1/path3912.png"
       sodipodi:nodetypes="cccccccccccccc"
       inkscape:connector-curvature="0"
       id="path4970"
       d="m 240.78735,156.37415 0,143.47513 13.7755,59.36901 23.33014,74.21128 c 29.36584,37.93086 46.76324,82.04565 98.36788,84.22978 l 0,-361.24147 z m 135.48203,0.12369 -0.008,361.16344 c 51.60459,-2.18413 68.87979,-46.17717 98.24558,-84.10803 l 23.33019,-74.21127 13.77545,-59.36902 0,-143.47512 z"
       style="fill:#cccccc;fill-opacity:1;stroke:none;display:inline" />
    <path
       inkscape:export-ydpi="150"
       inkscape:export-xdpi="150"
       inkscape:export-filename="/media/dmyers/h-drive/Digital Design 1/path3912.png"
       style="fill:#dcdcdc;fill-opacity:1;stroke:none;display:inline"
       d="m 284.07726,271.02089 c 27.89513,-16.20127 36.68961,-20.35177 62.09015,0 -25.40054,16.33783 -36.68966,10.69327 -62.09015,0 z"
       id="path4972"
       inkscape:connector-curvature="0"
       sodipodi:nodetypes="ccc" />
    <path
       inkscape:export-ydpi="150"
       inkscape:export-xdpi="150"
       inkscape:export-filename="/media/dmyers/h-drive/Digital Design 1/path3912.png"
       sodipodi:nodetypes="ccccccccccccccccc"
       inkscape:connector-curvature="0"
       id="path4974"
       d="m 240.91104,299.97296 13.77549,59.36902 23.33014,74.21127 c 29.36585,37.93086 46.63956,81.92197 98.2442,84.1061 l 0,-54.42352 c -4.50541,7.95431 -14.24371,11.48904 -28.98024,9.89676 -14.84226,-2.47371 -27.21085,-4.94742 -29.68456,-34.63192 -34.63193,-14.84226 -39.57935,-24.73709 -76.68498,-138.52771 z m 270.62377,0 c -37.10564,113.79062 -41.97573,123.68545 -76.60765,138.52771 -2.47371,29.6845 -14.84226,32.15821 -29.68451,34.63192 -14.73648,1.59228 -24.47636,-1.94052 -28.98178,-9.89484 l 10e-5,54.42546 c 51.60459,-2.18413 68.87979,-46.1791 98.24558,-84.10996 l 23.33019,-74.21127 z"
       style="fill:#000000;stroke:none;display:inline" />
    <path
       inkscape:export-ydpi="150"
       inkscape:export-xdpi="150"
       inkscape:export-filename="/media/dmyers/h-drive/Digital Design 1/path3912.png"
       sodipodi:nodetypes="cccc"
       inkscape:connector-curvature="0"
       id="path4976"
       d="m 372.01767,359.33564 0,19.78967 c -27.2108,2.47371 -44.52681,7.42113 -59.36907,17.31596 13.27956,-21.19876 37.10569,-19.78967 59.36907,-37.10563 z"
       style="fill:#000000;stroke:none;display:inline" />
    <path
       inkscape:export-ydpi="150"
       inkscape:export-xdpi="150"
       inkscape:export-filename="/media/dmyers/h-drive/Digital Design 1/path3912.png"
       sodipodi:nodetypes="ccccc"
       inkscape:connector-curvature="0"
       id="path4978"
       d="m 376.26087,423.65207 -21.55917,0 c -9.89483,0 -9.89483,14.84226 0,14.84226 l 21.55917,0 z"
       style="fill:#000000;stroke:none;display:inline" />
    <path
       inkscape:export-ydpi="150"
       inkscape:export-xdpi="150"
       inkscape:export-filename="/media/dmyers/h-drive/Digital Design 1/path3912.png"
       inkscape:connector-curvature="0"
       id="path4980"
       d="m 376.2539,245.55136 c -13.40657,4.69145 -14.13107,4.94742 -14.13107,19.78968 l 0,39.57934 c -8.65565,12.98352 -10.51034,16.86733 -24.73709,24.73709 0,14.76692 1.58783,18.46542 14.84226,27.2108 l 24.0259,0 0,-111.31691 z m 0.0153,0 0,111.31691 24.02585,0 c 13.25448,-8.74538 14.84231,-12.44388 14.84226,-27.2108 -14.22675,-7.86976 -16.08144,-11.75357 -24.73709,-24.73709 l 0,-39.57934 c 0,-14.84226 -0.7245,-15.09823 -14.13102,-19.78968 z"
       style="fill:#dcdcdc;fill-opacity:1;stroke:none;display:inline" />
    <path
       inkscape:export-ydpi="150"
       inkscape:export-xdpi="150"
       inkscape:export-filename="/media/dmyers/h-drive/Digital Design 1/path3912.png"
       sodipodi:nodetypes="ccc"
       inkscape:connector-curvature="0"
       id="path4982"
       d="m 367.07025,354.38822 c -4.49329,-8.92101 -12.71655,-9.14033 -19.29493,-6.43164 -3.41604,9.41795 14.47803,8.96924 19.29493,6.43164 z"
       style="fill:#b4b4b4;fill-opacity:1;stroke:none;display:inline" />
    <path
       inkscape:connector-curvature="0"
       id="path4984"
       d="m 373.8259,319.76263 c -5.44676,0.0339 -9.23005,0.30922 -9.23005,2.47371 l 0,14.84226 c 0,2.47371 4.94044,2.47371 11.65735,2.47371 l 0,-19.78968 c -0.83962,0 -1.64917,-0.005 -2.4273,0 z m 2.44274,0 0,19.78968 c 6.71696,0 11.6574,0 11.6574,-2.47371 l 0,-14.84226 c 0,-2.47371 -4.94054,-2.47371 -11.6574,-2.47371 z"
       style="fill:#f0f0f0;fill-opacity:1;stroke:none;display:inline" />
    <path
       inkscape:export-ydpi="150"
       inkscape:export-xdpi="150"
       inkscape:export-filename="/media/dmyers/h-drive/Digital Design 1/path3912.png"
       sodipodi:nodetypes="ccccc"
       inkscape:connector-curvature="0"
       id="path4986"
       d="m 357.17541,250.49244 -14.84225,-12.36855 c -30.25806,-10.25538 -48.37813,-1.86909 -71.73761,9.89484 l 13.85277,-3.46319 c 24.58961,-3.08816 51.65154,-0.90204 72.72709,5.9369 z"
       style="fill:#000000;stroke:none;display:inline" />
    <path
       inkscape:export-ydpi="150"
       inkscape:export-xdpi="150"
       inkscape:export-filename="/media/dmyers/h-drive/Digital Design 1/path3912.png"
       sodipodi:nodetypes="ccc"
       inkscape:connector-curvature="0"
       id="path4988"
       d="m 287.91151,270.80436 c 24.44994,-14.20032 32.15822,-17.83821 54.42165,0 -22.26343,14.32001 -32.15827,9.37259 -54.42165,0 z"
       style="fill:#f0f0f0;fill-opacity:1;stroke:none;display:inline" />
    <circle
       inkscape:export-ydpi="150"
       inkscape:export-xdpi="150"
       inkscape:export-filename="/media/dmyers/h-drive/Digital Design 1/path3912.png"
       id="circle4990"
       style="fill:#000000;fill-opacity:1;stroke:none;display:inline"
       cx="317.39365"
       cy="269.12576"
       r="10.142207"
       sodipodi:cx="317.39365"
       sodipodi:cy="269.12576"
       sodipodi:rx="10.142207"
       sodipodi:ry="10.142207"
       d="m 327.53585,269.12576 c 0,5.60139 -4.54082,10.14221 -10.1422,10.14221 -5.60139,0 -10.14221,-4.54082 -10.14221,-10.14221 0,-5.60138 4.54082,-10.1422 10.14221,-10.1422 5.60138,0 10.1422,4.54082 10.1422,10.1422 z" />
    <path
       inkscape:export-ydpi="150"
       inkscape:export-xdpi="150"
       inkscape:export-filename="/media/dmyers/h-drive/Digital Design 1/path3912.png"
       inkscape:connector-curvature="0"
       id="path4992"
       d="m 366.04985,388.88734 c -13.12585,0.20652 -29.27452,8.84207 -43.50641,14.9814 l 53.71046,-0.0618 0,-12.86329 c -3.09219,-1.50162 -6.52882,-2.11409 -10.20405,-2.05627 z m 20.42358,0 c -3.67524,-0.0578 -7.11191,0.55465 -10.20405,2.05627 l 0,12.86329 53.71036,0.0618 c -14.23184,-6.13933 -30.38051,-14.77488 -43.50631,-14.9814 z"
       style="fill:#dcdcdc;fill-opacity:1;stroke:none;display:inline" />
    <path
       inkscape:export-ydpi="150"
       inkscape:export-xdpi="150"
       inkscape:export-filename="/media/dmyers/h-drive/Digital Design 1/path3912.png"
       sodipodi:nodetypes="ccc"
       inkscape:connector-curvature="0"
       id="path4994"
       d="m 468.44606,271.02089 c -27.89512,-16.20127 -36.68955,-20.35177 -62.09004,0 25.40049,16.33783 36.68955,10.69327 62.09004,0 z"
       style="fill:#dcdcdc;fill-opacity:1;stroke:none;display:inline" />
    <path
       inkscape:export-ydpi="150"
       inkscape:export-xdpi="150"
       inkscape:export-filename="/media/dmyers/h-drive/Digital Design 1/path3912.png"
       style="fill:#000000;stroke:none;display:inline"
       d="m 380.50576,359.33564 0,19.78967 c 27.2108,2.47371 44.52676,7.42113 59.36896,17.31596 -13.27951,-21.19876 -37.10558,-19.78967 -59.36896,-37.10563 z"
       id="path4996"
       inkscape:connector-curvature="0"
       sodipodi:nodetypes="cccc" />
    <path
       inkscape:export-ydpi="150"
       inkscape:export-xdpi="150"
       inkscape:export-filename="/media/dmyers/h-drive/Digital Design 1/path3912.png"
       style="fill:#000000;stroke:none;display:inline"
       d="m 376.26255,423.65207 21.55917,0 c 9.89484,0 9.89484,14.84226 0,14.84226 l -21.55917,0 z"
       id="path4998"
       inkscape:connector-curvature="0"
       sodipodi:nodetypes="ccccc" />
    <path
       inkscape:export-ydpi="150"
       inkscape:export-xdpi="150"
       inkscape:export-filename="/media/dmyers/h-drive/Digital Design 1/path3912.png"
       style="fill:#b4b4b4;fill-opacity:1;stroke:none;display:inline"
       d="m 385.45317,354.38822 c 4.4933,-8.92101 12.71655,-9.14033 19.29493,-6.43164 3.41605,9.41795 -14.47802,8.96924 -19.29493,6.43164 z"
       id="path5000"
       inkscape:connector-curvature="0"
       sodipodi:nodetypes="ccc" />
    <path
       inkscape:export-ydpi="150"
       inkscape:export-xdpi="150"
       inkscape:export-filename="/media/dmyers/h-drive/Digital Design 1/path3912.png"
       style="fill:#000000;stroke:none;display:inline"
       d="m 395.34801,250.49244 14.84225,-12.36855 c 30.25797,-10.25538 48.37804,-1.86909 71.73752,9.89484 l -13.85277,-3.46319 c -24.58961,-3.08816 -51.65144,-0.90204 -72.727,5.9369 z"
       id="path5002"
       inkscape:connector-curvature="0"
       sodipodi:nodetypes="ccccc" />
    <path
       inkscape:export-ydpi="150"
       inkscape:export-xdpi="150"
       inkscape:export-filename="/media/dmyers/h-drive/Digital Design 1/path3912.png"
       style="fill:#f0f0f0;fill-opacity:1;stroke:none;display:inline"
       d="m 464.61181,270.80436 c -24.44994,-14.20032 -32.15816,-17.83821 -54.42155,0 22.26339,14.32001 32.15817,9.37259 54.42155,0 z"
       id="path5004"
       inkscape:connector-curvature="0"
       sodipodi:nodetypes="ccc" />
    <circle
       inkscape:export-ydpi="150"
       inkscape:export-xdpi="150"
       inkscape:export-filename="/media/dmyers/h-drive/Digital Design 1/path3912.png"
       style="fill:#000000;fill-opacity:1;stroke:none;display:inline"
       id="circle5006"
       transform="scale(-1,1)"
       cx="-435.12964"
       cy="269.12576"
       r="10.142207"
       sodipodi:cx="-435.12964"
       sodipodi:cy="269.12576"
       sodipodi:rx="10.142207"
       sodipodi:ry="10.142207"
       d="m -424.98743,269.12576 c 0,5.60139 -4.54082,10.14221 -10.14221,10.14221 -5.60139,0 -10.14221,-4.54082 -10.14221,-10.14221 0,-5.60138 4.54082,-10.1422 10.14221,-10.1422 5.60139,0 10.14221,4.54082 10.14221,10.1422 z" />
    <path
       inkscape:export-ydpi="150"
       inkscape:export-xdpi="150"
       inkscape:export-filename="/media/dmyers/h-drive/Digital Design 1/path3912.png"
       sodipodi:nodetypes="cccccccccccccccccc"
       inkscape:connector-curvature="0"
       id="path5008"
       d="m 240.90208,299.96802 15.04204,-29.16366 c 0.009,-24.73849 -3.35,-49.64659 14.64247,-49.99502 l 0,-44.52677 c 29.66922,-11.54566 79.327,-29.29461 105.66533,-9.89483 l 22.96759,4.94742 c 37.11459,-0.001 47.00938,19.78826 47.00938,44.52535 58.16645,-1.29645 43.8084,54.94385 65.29696,84.10751 -0.23198,-20.48834 0.31323,-21.9288 18.80019,-27.21079 27.12353,-14.27086 24.73709,-23.26485 24.73709,-51.94789 l 14.84226,-29.68451 C 560.3875,173.26678 558.91188,150.99615 540.22088,141.65065 537.21324,45.324249 459.19934,43.102359 297.79734,42.702279 c -33.34312,16.04359 -54.48369,34.725104 -74.21127,64.316441 24.71438,23.42247 -9.83937,67.09865 -19.78072,89.05212 12.95185,23.73423 16.29418,47.99497 19.78968,74.21127 6.0351,1.65228 11.63276,4.36896 17.31596,6.92639 z"
       style="fill:#000000;stroke:none;display:inline" />
    <path
       inkscape:export-ydpi="150"
       inkscape:export-xdpi="150"
       inkscape:connector-curvature="0"
       id="path5010"
       d="m 376.2539,403.8069 -53.71046,0.0618 c 17.49738,6.63131 35.48892,10.85534 53.71046,14.78041 l 0,-14.84225 z m 0.0153,0 0,14.84225 c 18.22149,-3.92507 36.21302,-8.1491 53.71036,-14.78041 l -53.71036,-0.0618 z"
       style="fill:#f0f0f0;fill-opacity:1;stroke:none;display:inline" />
  </g>
</svg>
